HIERARCHY
ROOT Hips
{
  OFFSET 45.4827 92.4961 -16.9942
  CHANNELS 6 Xposition Yposition Zposition Zrotation Xrotation Yrotation
  JOINT Chest
  {
    OFFSET 1.23234e-007 14.8421 1.27321e-009
    CHANNELS 6 Xposition Yposition Zposition Zrotation Xrotation Yrotation
    JOINT LeftCollar
    {
      OFFSET 6.64893 27.3161 3.27471
      CHANNELS 6 Xposition Yposition Zposition Zrotation Xrotation Yrotation
      JOINT LeftUpArm
      {
        OFFSET 10.8584 2.41798 -0.945791
        CHANNELS 6 Xposition Yposition Zposition Zrotation Xrotation Yrotation
        JOINT LeftLowArm
        {
          OFFSET 3.77631 -24.5904 -1.70468
          CHANNELS 6 Xposition Yposition Zposition Zrotation Xrotation Yrotation
          JOINT LeftHand
          {
            OFFSET 1.01026 -21.1231 1.74131
            CHANNELS 6 Xposition Yposition Zposition Zrotation Xrotation Yrotation
            End Site
            {
              OFFSET 1.17583e-006 -9.81266 -2.89439e-008
            }
          }
        }
      }
    }
    JOINT RightCollar
    {
      OFFSET -6.11406 27.2248 4.23427
      CHANNELS 6 Xposition Yposition Zposition Zrotation Xrotation Yrotation
      JOINT RightUpArm
      {
        OFFSET -10.4566 2.3285 -0.910794
        CHANNELS 6 Xposition Yposition Zposition Zrotation Xrotation Yrotation
        JOINT RightLowArm
        {
          OFFSET -3.86856 -25.191 -1.74633
          CHANNELS 6 Xposition Yposition Zposition Zrotation Xrotation Yrotation
          JOINT RightHand
          {
            OFFSET -1.04759 -20.6242 1.75213
            CHANNELS 6 Xposition Yposition Zposition Zrotation Xrotation Yrotation
            End Site
            {
              OFFSET -2.03487e-006 -9.50367 -4.31372e-006
            }
          }
        }
      }
    }
    JOINT Neck
    {
      OFFSET 0.51659 29.8236 6.51843
      CHANNELS 6 Xposition Yposition Zposition Zrotation Xrotation Yrotation
      JOINT Head
      {
        OFFSET 1.16803e-007 7.47049 6.44171e-007
        CHANNELS 6 Xposition Yposition Zposition Zrotation Xrotation Yrotation
        End Site
        {
          OFFSET -4.32676e-008 16.2908 2.16786e-007
        }
      }
    }
  }
  JOINT LeftUpLeg
  {
    OFFSET 9 -3.38008e-006 -5.23001e-009
    CHANNELS 6 Xposition Yposition Zposition Zrotation Xrotation Yrotation
    JOINT LeftLowLeg
    {
      OFFSET -0.575 -51.431 3.90177
      CHANNELS 6 Xposition Yposition Zposition Zrotation Xrotation Yrotation
      JOINT LeftFoot
      {
        OFFSET 2.13082e-007 -43.5882 -3.90177
        CHANNELS 6 Xposition Yposition Zposition Zrotation Xrotation Yrotation
        End Site
        {
          OFFSET 7.44796e-007 -6.93413 15.0046
        }
      }
    }
  }
  JOINT RightUpLeg
  {
    OFFSET -9 6.86154e-007 -3.19539e-009
    CHANNELS 6 Xposition Yposition Zposition Zrotation Xrotation Yrotation
    JOINT RightLowLeg
    {
      OFFSET 0.575 -51.4311 3.90177
      CHANNELS 6 Xposition Yposition Zposition Zrotation Xrotation Yrotation
      JOINT RightFoot
      {
        OFFSET -7.46079e-007 -43.5882 -3.90177
        CHANNELS 6 Xposition Yposition Zposition Zrotation Xrotation Yrotation
        End Site
        {
          OFFSET 4.66716e-007 -6.93413 15.0046
        }
      }
    }
  }
}
MOTION
Frames:	6
Frame Time:	0.0333333
51.2304 96.5829 -12.545 0.383371 -7.22989 -1.94095 1.23232e-007 14.8421 1.27321e-009 -2.06133 7.18585 3.79194 6.64893 27.3161 3.27471 -2.94784 5.93879 -4.20517 10.8584 2.41798 -0.945791 -14.749 -48.5314 -4.96304 3.77631 -24.5904 -1.70468 -9.53859 -41.9045 50.8681 1.01026 -21.1231 1.74131 -20.7705 12.5695 0.128305 -6.11406 27.2248 4.23427 -1.96452 7.32629 3.42623 -10.4566 2.3285 -0.910794 6.32228 -28.2595 -17.043 -3.86856 -25.191 -1.74633 66.512 -68.6625 53.9166 -1.04759 -20.6242 1.75213 10.0928 15.4249 -1.01087 0.51659 29.8236 6.51843 -5.2174 -19.0916 -2.49673 1.16803e-007 7.47049 6.44171e-007 5.31438 20.0434 -4.70204 9 -3.38008e-006 -5.23001e-009 7.82959 -5.364 10.7757 -0.575 -51.431 3.90177 -0.179515 34.0127 -24.2168 2.13082e-007 -43.5882 -3.90177 10.0276 -12.5252 0.0394726 -9 6.86154e-007 -3.19539e-009 -15.621 -5.68621 -17.5032 0.575 -51.4311 3.90177 -5.13339 30.605 18.7863 -7.46079e-007 -43.5882 -3.90177 -9.99499 -8.08974 0.30799 
51.2042 96.7325 -12.503 0.531584 -7.17268 -2.11179 1.23232e-007 14.8421 1.27321e-009 -2.08694 7.11704 3.41441 6.64893 27.3161 3.27471 -2.94784 5.93879 -4.20517 10.8584 2.41798 -0.945791 -15.2377 -50.0072 -6.53188 3.77631 -24.5904 -1.70468 -7.61851 -40.0959 51.5411 1.01026 -21.1231 1.74131 -20.6858 12.46 0.100248 -6.11406 27.2248 4.23427 -1.96452 7.32629 3.42623 -10.4566 2.3285 -0.910794 6.5256 -28.6657 -16.1816 -3.86856 -25.191 -1.74633 64.9597 -68.7018 52.7211 -1.04759 -20.6242 1.75213 9.87089 15.1262 -0.959487 0.51659 29.8236 6.51843 -5.36411 -18.9923 -2.37633 1.16803e-007 7.47049 6.44171e-007 5.43907 19.9678 -4.66222 9 -3.38008e-006 -5.23001e-009 7.61306 -5.11882 10.6903 -0.575 -51.431 3.90177 -0.225749 33.4495 -23.8881 2.13082e-007 -43.5882 -3.90177 9.82705 -12.2786 0.016874 -9 6.86154e-007 -3.19539e-009 -15.7552 -5.6155 -17.5781 0.575 -51.4311 3.90177 -5.03614 30.2575 18.9554 -7.46079e-007 -43.5882 -3.90177 -9.94565 -7.84968 0.324575 
51.1728 96.9031 -12.4783 0.64888 -7.10735 -2.2112 1.23232e-007 14.8421 1.27321e-009 -2.01973 7.00425 2.64572 6.64893 27.3161 3.27471 -2.94784 5.93879 -4.20517 10.8584 2.41798 -0.945791 -16.2777 -52.2024 -8.70093 3.77631 -24.5904 -1.70468 -4.88894 -37.7172 50.5856 1.01026 -21.1231 1.74131 -21.2549 13.2227 0.301853 -6.11406 27.2248 4.23427 -1.96452 7.32629 3.42623 -10.4566 2.3285 -0.910794 6.74415 -29.2204 -14.8878 -3.86856 -25.191 -1.74633 62.7299 -68.5764 50.8701 -1.04759 -20.6242 1.75213 10.1383 14.6334 -0.883264 0.51659 29.8236 6.51843 -5.4836 -19.1002 -2.09031 1.16803e-007 7.47049 6.44171e-007 5.44422 20.2364 -4.43463 9 -3.38008e-006 -5.23001e-009 7.481 -4.82228 10.7133 -0.575 -51.431 3.90177 -0.36212 32.7345 -23.7475 2.13082e-007 -43.5882 -3.90177 9.68841 -12.0581 -0.00206761 -9 6.86154e-007 -3.19539e-009 -15.8379 -5.44302 -17.6587 0.575 -51.4311 3.90177 -4.87414 29.7064 19.0219 -7.46079e-007 -43.5882 -3.90177 -9.89556 -7.71684 0.333103 
51.1253 97.1441 -12.5399 0.659062 -6.81996 -2.26803 1.23232e-007 14.8421 1.27321e-009 -1.76741 6.81955 1.69024 6.64893 27.3161 3.27471 -2.94784 5.93879 -4.20517 10.8584 2.41798 -0.945791 -18.0346 -55.2839 -12.0023 3.77631 -24.5904 -1.70468 -1.81141 -34.9288 49.4005 1.01026 -21.1231 1.74131 -22.8102 16.2467 1.11195 -6.11406 27.2248 4.23427 -1.96452 7.32629 3.42623 -10.4566 2.3285 -0.910794 7.05612 -29.7937 -13.5561 -3.86856 -25.191 -1.74633 61.3805 -68.515 49.4777 -1.04759 -20.6242 1.75213 10.0062 15.1585 -0.966784 0.51659 29.8236 6.51843 -5.57162 -19.5223 -1.75661 1.16803e-007 7.47049 6.44171e-007 5.24519 20.6528 -4.08365 9 -3.38008e-006 -5.23001e-009 7.43258 -4.79471 10.6835 -0.575 -51.431 3.90177 -0.388759 31.9443 -23.7884 2.13082e-007 -43.5882 -3.90177 9.38542 -11.5532 -0.0435995 -9 6.86154e-007 -3.19539e-009 -15.7636 -5.41871 -17.7081 0.575 -51.4311 3.90177 -4.64414 28.9465 18.9771 -7.46079e-007 -43.5882 -3.90177 -9.74695 -7.25126 0.362769 
51.0964 97.4248 -12.669 0.795226 -6.38803 -2.23911 1.23232e-007 14.8421 1.27321e-009 -1.49631 6.30254 0.412077 6.64893 27.3161 3.27471 -2.94784 5.93879 -4.20517 10.8584 2.41798 -0.945791 -20.5903 -60.1495 -17.4543 3.77631 -24.5904 -1.70468 0.231568 -30.0419 49.5798 1.01026 -21.1231 1.74131 -21.2246 14.6214 0.659839 -6.11406 27.2248 4.23427 -1.96452 7.32629 3.42623 -10.4566 2.3285 -0.910794 7.57705 -30.5226 -11.4981 -3.86856 -25.191 -1.74633 57.5907 -68.3629 46.2873 -1.04759 -20.6242 1.75213 10.0755 14.9372 -0.931717 0.51659 29.8236 6.51843 -5.7409 -19.2007 -1.3121 1.16803e-007 7.47049 6.44171e-007 5.29601 20.3933 -3.73272 9 -3.38008e-006 -5.23001e-009 7.23246 -4.88132 10.5751 -0.575 -51.431 3.90177 -0.450489 30.9491 -23.6368 2.13082e-007 -43.5882 -3.90177 9.05443 -11.0396 -0.0830554 -9 6.86154e-007 -3.19539e-009 -15.7907 -5.55 -17.7634 0.575 -51.4311 3.90177 -4.45081 28.1371 18.9844 -7.46079e-007 -43.5882 -3.90177 -9.52688 -6.65789 0.398015 
51.0394 97.7313 -12.7935 0.897228 -5.98372 -1.74156 1.23233e-007 14.8421 1.27321e-009 -1.21199 5.89644 -1.52925 6.64893 27.3161 3.27471 -2.94784 5.93879 -4.20517 10.8584 2.41798 -0.945791 -28.4071 -66.5577 -29.2516 3.77631 -24.5904 -1.70468 4.6031 -21.8437 48.6616 1.01026 -21.1231 1.74131 -19.9993 13.3835 0.3422 -6.11406 27.2248 4.23427 -1.96452 7.32629 3.42623 -10.4566 2.3285 -0.910794 8.51026 -31.1167 -9.20475 -3.86856 -25.191 -1.74633 53.7948 -68.2214 42.876 -1.04759 -20.6242 1.75213 10.4036 14.4104 -0.848285 0.51659 29.8236 6.51843 -5.49579 -18.948 -0.889248 1.16803e-007 7.47049 6.44171e-007 5.21446 20.2145 -3.28573 9 -3.38008e-006 -5.23001e-009 7.08436 -4.98739 10.429 -0.575 -51.431 3.90177 -0.43501 29.866 -23.9257 2.13082e-007 -43.5882 -3.90177 8.76458 -10.4732 -0.123131 -9 6.86154e-007 -3.19539e-009 -15.7414 -5.36149 -17.8716 0.575 -51.4311 3.90177 -4.16601 27.1114 18.6322 -7.46079e-007 -43.5882 -3.90177 -9.32774 -6.1867 0.42328 
